<svg width="64" height="64" viewBox="0 0 64 64" fill="none" xmlns="http://www.w3.org/2000/svg">
<path d="M44.1391 27.9452L46.2043 31.6111L47.2219 31.0138L45.1369 27.3124L46.4642 27.6631L46.7581 26.5033L43.511 25.6445L42.668 28.966L43.8041 29.2662L44.1391 27.9452Z" fill="#AAAAAA"/>
<path d="M39.3925 30.7753L41.4577 34.4411L42.4753 33.8439L40.3895 30.1424L41.7168 30.4932L42.0115 29.3334L38.7636 28.4746L37.9214 31.796L39.0575 32.0962L39.3925 30.7753Z" fill="#AAAAAA"/>
<path d="M41.6575 37.5101L49.9334 32.5627L49.34 31.5293L41.0649 36.4759L41.6575 37.5101Z" fill="#AAAAAA"/>
<path d="M44.5129 43.4924L58.6764 34.7852L39.3451 2L20.8838 13.35L38.2888 42.8691C34.1394 43.9791 31.2257 48.0021 31.5765 52.5181C31.951 57.3406 35.9147 61.012 40.5737 61.012C40.8123 61.012 41.0533 61.0026 41.2958 60.9828C46.2606 60.5799 49.9794 56.1279 49.5851 51.0589C49.3236 47.6821 47.3011 44.875 44.5129 43.4924ZM38.6783 4.74151L55.9917 34.1041L42.0298 42.6874C41.4973 42.5989 40.9513 42.557 40.3951 42.5689L23.5684 14.0311L38.6783 4.74151ZM41.141 58.9919C37.2491 59.3095 33.8353 56.3325 33.5263 52.3601C33.2174 48.3885 36.1312 44.9003 40.0206 44.5851C40.2118 44.5693 40.403 44.5614 40.5927 44.5614C42.2723 44.5614 43.8809 45.165 45.1734 46.2908C46.6113 47.5431 47.4859 49.2931 47.6353 51.2169C47.9442 55.1885 45.0312 58.6758 41.141 58.9919Z" fill="#AAAAAA"/>
<path d="M40.4283 49.8269C39.3689 49.913 38.5756 50.8627 38.6594 51.9443C38.7392 52.9729 39.5853 53.7567 40.58 53.7567C40.6306 53.7567 40.6819 53.7551 40.7333 53.7503C41.7928 53.6642 42.586 52.7146 42.5022 51.633C42.4185 50.5514 41.4839 49.7384 40.4283 49.8269ZM40.6409 52.5566C40.23 52.5937 39.8626 52.2729 39.8295 51.8495C39.7963 51.4268 40.1068 51.0554 40.5216 51.0215C40.5413 51.0199 40.5619 51.0191 40.5816 51.0191C40.9703 51.0191 41.3013 51.3256 41.333 51.7286C41.3653 52.1513 41.0549 52.5226 40.6409 52.5566Z" fill="#AAAAAA"/>
<path d="M33.7184 43.5567L34.3457 43.0107L13.0188 6.35109C11.9672 4.54422 10.1145 3.38047 8.06192 3.23668L3.13431 2.89062L3 4.88317L7.9284 5.22921C9.34024 5.32797 10.6146 6.12909 11.3375 7.37185L31.8372 42.6086C29.1803 45.2537 27.785 49.0026 28.0805 52.8012L30.0304 52.6432C29.7618 49.1985 31.1412 45.802 33.7184 43.5567Z" fill="#AAAAAA"/>
<path d="M60.4486 37.9316L49.1333 44.8257L50.2686 46.4595L61.4504 39.6469L60.4486 37.9316Z" fill="#AAAAAA"/>
</svg>
