<svg width="64" height="51" viewBox="0 0 64 51" fill="none" xmlns="http://www.w3.org/2000/svg">
<path d="M63.8504 26.8125C63.8557 26.0136 63.4571 25.2913 62.7827 24.8799L62.3756 24.6315C63.0655 22.6784 64.4701 15.9868 55.4983 7.83458C50.6864 3.46142 43.3661 0.828814 34.888 0.421631C27.2206 0.0503009 19.2746 1.51001 13.0761 4.41748C5.33415 8.04884 0.329389 14.0046 0.015735 19.9604C-0.182228 23.7224 1.39548 29.3085 10.0356 34.5652C15.0703 37.628 20.9998 38.7762 26.631 38.7762C30.358 38.7762 33.9522 38.2734 37.0681 37.4897L37.0664 38.1385L33.2854 40.3306C32.185 40.9769 31.3255 42.4904 31.3298 43.7768C31.3315 44.5049 31.6169 45.0888 32.1105 45.3774C32.3282 45.5045 32.5732 45.5677 32.8338 45.5677C33.1681 45.5677 33.5254 45.4636 33.8759 45.2569L37.1872 43.3372C37.2781 43.6009 37.4135 43.845 37.5892 44.0602C36.8959 44.8174 36.422 45.8963 36.4246 46.8507C36.4262 47.5788 36.7116 48.1619 37.2053 48.4513C37.4229 48.5793 37.668 48.6417 37.9286 48.6417C38.2627 48.6417 38.6193 48.5375 38.9706 48.3317L41.7198 46.738L47.5627 50.2986C47.9312 50.5239 48.3383 50.6366 48.7462 50.6366C49.1336 50.6366 49.5217 50.5349 49.8783 50.3302C49.9811 50.2712 50.0763 50.2037 50.167 50.132L62.1057 42.1498C63.1872 41.495 63.8548 40.2974 63.8513 39.0169L63.8136 27.1975C63.8342 27.0712 63.8496 26.944 63.8504 26.8125ZM50.0797 33.8977C49.8877 33.7031 49.6743 33.528 49.4369 33.3838L41.3076 28.4311L51.8151 22.1141C52.6454 21.6199 53.6747 21.625 54.4999 22.1295L61.7843 26.5735C61.888 26.6366 61.9094 26.7306 61.9086 26.7989C61.9086 26.8671 61.8854 26.9602 61.7834 27.0208L50.0797 33.8977ZM11.0322 32.869C4.85082 29.1088 1.71255 24.681 1.95508 20.0654C2.22932 14.8429 6.80302 9.53502 13.8894 6.21096C25.6463 0.697356 44.6507 0.625649 54.2051 9.3071C61.816 16.2232 61.2066 21.6976 60.6702 23.5901L55.4992 20.435C54.6337 19.9066 53.6396 19.6992 52.6694 19.8025C50.8878 14.3247 44.5076 8.54566 33.9925 7.68775C30.3135 7.38727 26.3816 7.7219 22.3067 8.68138C19.1161 9.43258 17.3738 10.322 15.4413 11.6034L16.5024 13.2577C18.2943 12.0695 19.8197 11.2944 22.7445 10.6055C26.6241 9.69208 30.3554 9.37283 33.8373 9.65708C43.4612 10.4416 49.2493 15.5693 50.8227 20.4145L38.4007 27.8821C38.3527 27.9052 38.3048 27.9257 38.2576 27.9521C37.5274 28.3712 37.0904 29.131 37.0878 29.9838L37.0732 35.4496C29.6073 37.4334 19.0638 37.7544 11.0322 32.869ZM33.2949 44.2283C33.0455 44.3743 32.8141 44.4204 32.6907 44.3487C32.5698 44.2778 32.4945 44.0568 32.4936 43.7717C32.491 42.9001 33.12 41.793 33.8639 41.3567L40.9931 37.2242L41 39.7613L33.2949 44.2283ZM38.3896 47.304C38.1403 47.4499 37.908 47.496 37.7854 47.4243C37.6646 47.3535 37.5892 47.1324 37.5883 46.8481C37.5857 45.9766 38.2148 44.8694 38.9587 44.4332L46.0879 40.2999L46.0947 42.8369L38.3896 47.304ZM43.6558 45.6155L46.9679 43.6957C47.1497 43.5898 47.2627 43.3926 47.2619 43.1793L47.2516 39.2798C47.2508 39.069 47.1402 38.8744 46.9611 38.7686C46.782 38.6626 46.5609 38.6618 46.3801 38.7668L39.2243 42.9154L39.1703 42.883C39.0624 42.8173 38.9955 42.6969 38.9955 42.5655V42.2897L41.8732 40.6217C42.0549 40.5159 42.168 40.3187 42.1671 40.1053L42.1569 36.2059C42.156 35.995 42.0454 35.8005 41.8663 35.6945C41.6872 35.5887 41.4662 35.5879 41.2853 35.6929L39.0109 37.0109L39.0298 29.9915C39.0298 29.8062 39.1446 29.7132 39.2123 29.6739C39.28 29.6347 39.4171 29.5835 39.5748 29.6791L48.4377 35.0782C48.8713 35.3429 49.1396 35.8269 49.1387 36.3408L49.1052 48.2916C49.1052 48.4154 49.0538 48.4949 48.9999 48.5477L48.8756 48.6305C48.8011 48.6613 48.688 48.6818 48.5602 48.6041L43.6558 45.6155ZM61.1004 40.4578L51.0515 47.1759L51.0815 36.3459C51.0823 36.1043 51.0515 35.8678 51.0035 35.6366L61.8769 29.2479L61.9077 39.022C61.9094 39.611 61.6 40.1608 61.1004 40.4578Z" fill="#AAAAAA"/>
</svg>
