<svg width="64" height="64" viewBox="0 0 64 64" fill="none" xmlns="http://www.w3.org/2000/svg">
<path d="M47.8541 26.3236L41.1361 26.3227L5.07482 26.32C3.3545 26.32 1.95455 24.8905 1.95455 23.1334C1.95455 21.3762 3.3545 19.9467 5.07572 19.9467L45.5837 19.9494V17.9553L5.07572 17.9526C2.27851 17.9526 0.0026926 20.276 0.00179519 23.1325L0 58.8151C0 60.3927 1.25637 61.676 2.8017 61.676L47.8532 61.6796C49.3985 61.6796 50.6549 60.3963 50.6549 58.8196L50.6567 38.024L50.6576 29.1837C50.6558 27.6069 49.3994 26.3236 47.8541 26.3236ZM48.7013 58.8196C48.7013 59.297 48.3199 59.6865 47.8523 59.6865L2.8008 59.6829C2.33325 59.6829 1.95186 59.2934 1.95186 58.816L1.95365 27.2085C2.58363 27.7128 3.33117 28.0673 4.1478 28.2225V28.3132H5.07393L41.1352 28.3159L47.8532 28.3168C48.3217 28.3168 48.7022 28.7062 48.7022 29.1837L48.7013 38.024V58.8196Z" fill="#AAAAAA"/>
<path d="M47.6817 22.1577H6.50693V23.3539H47.6817V22.1577Z" fill="#AAAAAA"/>
<path d="M59.1445 8.37426C53.0143 2.11397 43.247 1.78372 36.7282 7.37635L37.3752 2.25486L35.4386 2L34.3483 10.6357L42.8054 11.7485L43.0549 9.77152L37.7845 9.07783C43.535 3.96352 52.2919 4.19595 57.7643 9.78409C63.4771 15.619 63.4762 25.1118 57.7625 30.9458L59.1427 32.3556C65.6183 25.7444 65.6192 14.9863 59.1445 8.37426Z" fill="#AAAAAA"/>
</svg>
