<svg width="24" height="21" viewBox="0 0 24 21" fill="none" xmlns="http://www.w3.org/2000/svg">
<path fill-rule="evenodd" clip-rule="evenodd" d="M0.010376 0.729589C0.010376 1.13231 0.279912 1.45918 0.611998 1.45918H2.71255C3.47738 1.45918 4.11995 2.01361 4.36104 2.8956L7.54429 14.4759L5.73317 19.9671C5.57169 20.4546 5.87192 20.956 6.28987 20.9678H19.5375C19.8695 20.9678 20.1391 20.6409 20.1391 20.2381C20.1391 19.8354 19.8695 19.5086 19.5375 19.5086H7.17638L8.58775 15.2296H19.5375C19.8037 15.2296 20.0293 15.02 20.109 14.7297L23.8705 4.4658C24.0502 3.97274 23.7482 3.46037 23.3229 3.44245H5.77412L5.49833 2.43909C5.09459 0.966809 3.992 0 2.71255 0H0.611998C0.279912 0 0.010376 0.326866 0.010376 0.729589ZM8.61334 13.7705L6.17501 4.90162H22.4001L19.1496 13.7705H8.61334Z" fill="#1A1A1A"/>
</svg>
